<svg id="Layer_1" data-name="Layer 1" xmlns="http://www.w3.org/2000/svg" viewBox="0 0 151.3 172.8"><defs><style>.cls-1{fill:#445057;stroke:#fff;stroke-linejoin:round;stroke-width:2px;}.cls-2,.cls-3{font-size:36px;font-family:PTMono-Regular, PT Mono;}.cls-2{fill:#fff;}.cls-3{fill:#406e87;}</style></defs><title>logo</title><polygon class="cls-1" points="115 43.2 115 63.6 132.7 73.8 150.3 63.6 150.3 43.2 132.7 33 115 43.2"/><polygon class="cls-1" points="115 109.2 115 129.6 132.7 139.8 150.3 129.6 150.3 109.2 132.7 99 115 109.2"/><polygon class="cls-1" points="58 141.2 58 161.6 75.7 171.8 93.3 161.6 93.3 141.2 75.7 131 58 141.2"/><polygon class="cls-1" points="1 111.2 1 131.6 18.7 141.8 36.3 131.6 36.3 111.2 18.7 101 1 111.2"/><polygon class="cls-1" points="3 45.2 3 65.6 20.7 75.8 38.3 65.6 38.3 45.2 20.7 35 3 45.2"/><polygon class="cls-1" points="58 11.2 58 31.6 75.7 41.8 93.3 31.6 93.3 11.2 75.7 1 58 11.2"/><text class="cls-2" transform="translate(10.4 76.1)">Apollo</text><text class="cls-2" transform="translate(54.4 116.1)">Blog</text><text class="cls-3" transform="translate(9.4 74.1)">Apollo</text><text class="cls-3" transform="translate(53.4 114.1)">Blog</text></svg>