<svg id="Layer_1" data-name="Layer 1" xmlns="http://www.w3.org/2000/svg" viewBox="0 0 200 200"><defs><style>.cls-1{fill:#fff;}</style></defs><title>menuIcon</title><polygon class="cls-1" points="139.9 76.5 139.9 56.7 157.1 46.8 174.3 56.7 174.3 76.5 157.1 86.4 139.9 76.5"/><path class="cls-1" d="M157.1,47.4,173.8,57V76.2l-16.7,9.6-16.7-9.6V57l16.7-9.6m0-1.2L139.4,56.4V76.8L157.1,87l17.7-10.2V56.4L157.1,46.2Z"/><polygon class="cls-1" points="139.9 142.5 139.9 122.7 157.1 112.8 174.3 122.7 174.3 142.5 157.1 152.4 139.9 142.5"/><path class="cls-1" d="M157.1,113.4l16.7,9.6v19.2l-16.7,9.6-16.7-9.6V123l16.7-9.6m0-1.2-17.7,10.2v20.4L157.1,153l17.7-10.2V122.4l-17.7-10.2Z"/><polygon class="cls-1" points="82.9 174.5 82.9 154.7 100.1 144.8 117.3 154.7 117.3 174.5 100.1 184.4 82.9 174.5"/><path class="cls-1" d="M100.1,145.4l16.7,9.6v19.2l-16.7,9.6-16.7-9.6V155l16.7-9.6m0-1.2L82.4,154.4v20.4L100.1,185l17.7-10.2V154.4l-17.7-10.2Z"/><polygon class="cls-1" points="25.9 144.5 25.9 124.7 43.1 114.8 60.3 124.7 60.3 144.5 43.1 154.4 25.9 144.5"/><path class="cls-1" d="M43.1,115.4,59.8,125v19.2l-16.7,9.6-16.7-9.6V125l16.7-9.6m0-1.2L25.4,124.4v20.4L43.1,155l17.7-10.2V124.4L43.1,114.2Z"/><polygon class="cls-1" points="27.9 78.5 27.9 58.7 45.1 48.8 62.3 58.7 62.3 78.5 45.1 88.4 27.9 78.5"/><path class="cls-1" d="M45.1,49.4,61.8,59V78.2L45.1,87.8,28.4,78.2V59l16.7-9.6m0-1.2L27.4,58.4V78.8L45.1,89,62.8,78.8V58.4L45.1,48.2Z"/><polygon class="cls-1" points="82.9 44.5 82.9 24.7 100.1 14.8 117.3 24.7 117.3 44.5 100.1 54.4 82.9 44.5"/><path class="cls-1" d="M100.1,15.4,116.8,25V44.2l-16.7,9.6L83.4,44.2V25l16.7-9.6m0-1.2L82.4,24.4V44.8L100.1,55l17.7-10.2V24.4L100.1,14.2Z"/></svg>